<?xml version="1.0" encoding="UTF-8" standalone="no"?>
<svg
   xmlns:dc="http://purl.org/dc/elements/1.1/"
   xmlns:cc="http://creativecommons.org/ns#"
   xmlns:rdf="http://www.w3.org/1999/02/22-rdf-syntax-ns#"
   xmlns:svg="http://www.w3.org/2000/svg"
   xmlns="http://www.w3.org/2000/svg"
   xmlns:sodipodi="http://sodipodi.sourceforge.net/DTD/sodipodi-0.dtd"
   xmlns:inkscape="http://www.inkscape.org/namespaces/inkscape"
   viewBox="0 0 687.74518 189.19673"
   version="1.1"
   id="svg6"
   sodipodi:docname="logo.svg"
   inkscape:version="0.92.4 (5da689c313, 2019-01-14)"
   width="687.74518"
   height="189.19673">
  <metadata
     id="metadata12">
    <rdf:RDF>
      <cc:Work
         rdf:about="">
        <dc:format>image/svg+xml</dc:format>
        <dc:type
           rdf:resource="http://purl.org/dc/dcmitype/StillImage" />
        <dc:title></dc:title>
      </cc:Work>
    </rdf:RDF>
  </metadata>
  <defs
     id="defs10" />
  <sodipodi:namedview
     pagecolor="#ffffff"
     bordercolor="#666666"
     borderopacity="1"
     objecttolerance="10"
     gridtolerance="10"
     guidetolerance="10"
     inkscape:pageopacity="0"
     inkscape:pageshadow="2"
     inkscape:window-width="1366"
     inkscape:window-height="746"
     id="namedview8"
     showgrid="false"
     inkscape:zoom="0.39333333"
     inkscape:cx="927.47835"
     inkscape:cy="188.96884"
     inkscape:window-x="48"
     inkscape:window-y="40"
     inkscape:window-maximized="0"
     inkscape:current-layer="svg6"
     showguides="true"
     inkscape:guide-bbox="true">
    <sodipodi:guide
       position="687.88571,165.05232"
       orientation="1,0"
       id="guide4530"
       inkscape:locked="false" />
    <sodipodi:guide
       position="158.43656,65.899781"
       orientation="1,0"
       id="guide4532"
       inkscape:locked="false" />
    <sodipodi:guide
       position="124.75012,189.20486"
       orientation="0,1"
       id="guide4534"
       inkscape:locked="false" />
    <sodipodi:guide
       position="19.24164,52.552321"
       orientation="0,1"
       id="guide4536"
       inkscape:locked="false" />
    <sodipodi:guide
       position="0.40744458,215.11395"
       orientation="1,0"
       id="guide4538"
       inkscape:locked="false" />
    <sodipodi:guide
       position="131.64167,76.688811"
       orientation="1,0"
       id="guide4540"
       inkscape:locked="false" />
    <sodipodi:guide
       position="417.4806,52.552321"
       orientation="0,1"
       id="guide4550"
       inkscape:locked="false" />
    <sodipodi:guide
       position="904.66519,33.543311"
       orientation="0,1"
       id="guide4552"
       inkscape:locked="false" />
  </sodipodi:namedview>
  <g
     id="g3723"
     transform="matrix(0.28973017,0,0,0.28973017,-50.99251,-14.541495)">
    <ellipse
       stroke-width="null"
       id="ellipse2"
       ry="236"
       rx="228.5"
       cy="287"
       cx="404.5"
       style="fill:#543019" />
    <path
       id="path4"
       d="m 440.97,439.1 c 4.3251,-0.82214 8.6486,-1.261 13.148,-1.261 10.344,0 20.277,2.2461 29.102,5.972 8.5308,3.6706 18.233,5.8068 28.283,5.8068 9.934,0 19.634,-2.1362 28.166,-5.8068 6.0768,-2.5749 12.564,-4.602 19.517,-5.4234 -3.7396,-106.5 -122.19,-201.5 -127.8,-206.43 -5.8437,-4.9309 -11.22,-15.723 -7.4211,-28.433 l 28.283,-87.765 c 5.0251,-13.586 2.513,-31.775 -4.442,-37.253 -3.9727,-2.9584 -12.446,-5.0949 -18.114,0.98608 l -76.61,81.41 c -16.771,16.708 -2.746,34.568 -3.0969,34.458 -26.005,-8.7652 -56.566,-2.9031 -75.148,4.2739 l -63.228,30.076 c -6.2526,2.4651 -8.9986,9.9708 -5.7259,15.012 10.517,15.723 45.345,15.832 117.86,8.4363 117.22,-11.779 117.34,164.24 117.22,185.94"
       transform="rotate(18.886,382.11,262.61)"
       inkscape:connector-curvature="0"
       style="fill:rgba(255,255,255,0.7)" />
  </g>
  <g
     aria-label="SYFIN"
     style="font-style:normal;font-weight:normal;font-size:40px;line-height:1.25;font-family:sans-serif;letter-spacing:0px;word-spacing:0px;fill:#000000;fill-opacity:1;stroke:none"
     id="text3719">
    <path
       d="m 248.7162,33.023999 q -1.92,-2.112 -5.568,-4.416 -3.648,-2.496 -8.64,-4.608 -4.992,-2.112 -10.752,-3.456 -5.76,-1.344 -11.904,-1.344 -13.44,0 -19.968,4.992 -6.528,4.992 -6.528,13.824 0,6.528 3.648,10.368 3.648,3.648 11.136,6.144 7.488,2.496 18.816,5.376 13.824,3.264 24,7.872 10.176,4.416 15.552,11.904 5.376,7.488 5.376,19.776 0,10.368001 -3.84,17.856001 -3.84,7.488 -10.752,12.288 -6.912,4.608 -15.936,6.912 -9.024,2.112 -19.392,2.112 -10.176,0 -20.352,-2.112 -9.984,-2.112 -19.2,-6.144 -9.024,-4.224 -16.704,-10.176 l 9.792,-18.432 q 2.496,2.496 7.104,5.568 4.8,2.88 10.944,5.568 6.336,2.688 13.632,4.608 7.488,1.728 15.168,1.728 12.864,0 19.584,-4.416 6.912,-4.608 6.912,-13.056 0,-6.912001 -4.416,-10.944001 -4.416,-4.224 -12.864,-7.104 -8.448,-2.88 -20.16,-5.76 -13.44,-3.648 -22.464,-7.872 -9.024,-4.416 -13.632,-11.136 -4.416,-6.912 -4.416,-17.472 0,-13.44 6.528,-22.656 6.528,-9.4080002 17.664,-14.0160002 11.328,-4.8000000207031 25.344,-4.8000000207031 9.216,0 17.472,2.1120000207031 8.256,1.92 15.36,5.376 7.296,3.4560002 13.248,7.8720002 z"
       style="font-style:normal;font-variant:normal;font-weight:600;font-stretch:normal;font-size:192px;font-family:Raleway;-inkscape-font-specification:'Raleway Semi-Bold';fill:#543019;fill-opacity:1"
       id="path4649" />
    <path
       d="m 292.0602,0.95999878 37.632,67.77600022 38.016,-67.77600022 h 23.616 L 340.4442,88.511999 V 137.28 h -21.504 V 88.127999 L 268.4442,0.95999878 Z"
       style="font-style:normal;font-variant:normal;font-weight:600;font-stretch:normal;font-size:192px;font-family:Raleway;-inkscape-font-specification:'Raleway Semi-Bold';fill:#543019;fill-opacity:1"
       id="path4651" />
    <path
       d="M 408.0762,137.28 V 0.95999878 h 90.816 V 19.967999 h -69.312 v 40.704 h 57.984 v 17.856 h -57.984 V 137.28 Z"
       style="font-style:normal;font-variant:normal;font-weight:600;font-stretch:normal;font-size:192px;font-family:Raleway;-inkscape-font-specification:'Raleway Semi-Bold';fill:#543019;fill-opacity:1"
       id="path4653" />
    <path
       d="M 519.0762,137.28 V 0.95999878 h 21.504 V 137.28 Z"
       style="font-style:normal;font-variant:normal;font-weight:600;font-stretch:normal;font-size:192px;font-family:Raleway;-inkscape-font-specification:'Raleway Semi-Bold';fill:#543019;fill-opacity:1"
       id="path4655" />
    <path
       d="M 592.7052,40.895999 V 137.28 h -21.504 V 0.95999878 h 17.664 L 666.0492,99.455999 V 1.1519988 h 21.696 V 137.28 h -18.816 z"
       style="font-style:normal;font-variant:normal;font-weight:600;font-stretch:normal;font-size:192px;font-family:Raleway;-inkscape-font-specification:'Raleway Semi-Bold';fill:#543019;fill-opacity:1"
       id="path4657" />
  </g>
  <g
     aria-label="BECOME  YOUNG  AGAIN"
     transform="scale(0.96211259,1.0393794)"
     style="font-style:normal;font-weight:normal;font-size:44.17489243px;line-height:1.25;font-family:sans-serif;letter-spacing:0px;word-spacing:0px;fill:#000000;fill-opacity:1;stroke:none;stroke-width:1.10437226"
     id="text4528">
    <path
       d="m 209.90206,173.6795 q 0,2.34127 -1.19272,4.19661 -1.19272,1.81117 -3.22477,2.87137 -1.98787,1.01602 -4.37331,1.01602 h -14.79859 v -31.36417 h 15.10781 q 2.20875,0 3.79904,1.19272 1.63447,1.14855 2.4738,3.0039 0.88349,1.81117 0.88349,3.79904 0,2.34127 -1.19272,4.32914 -1.19272,1.98787 -3.31311,2.95971 2.69466,0.79515 4.24079,2.95972 1.59029,2.16457 1.59029,5.03594 z m -3.09224,-0.5301 q 0,-1.5903 -0.7068,-2.91554 -0.7068,-1.36942 -1.94369,-2.20875 -1.19273,-0.83932 -2.73885,-0.83932 h -12.01557 v 11.88305 h 11.70635 q 1.59029,0 2.87137,-0.83933 1.28107,-0.83932 2.03204,-2.16457 0.79515,-1.36942 0.79515,-2.91554 z M 189.40491,153.094 v 11.57382 h 10.77868 q 1.54612,0 2.73884,-0.79515 1.19272,-0.83932 1.89952,-2.16457 0.7068,-1.32524 0.7068,-2.82719 0,-1.5903 -0.66263,-2.87137 -0.66262,-1.32525 -1.81117,-2.12039 -1.14854,-0.79515 -2.60632,-0.79515 z"
       style="font-style:normal;font-variant:normal;font-weight:normal;font-stretch:normal;font-family:Raleway;-inkscape-font-specification:Raleway;fill:#543019;fill-opacity:1;stroke-width:1.10437226"
       id="path4660" />
    <path
       d="m 236.80526,179.02466 v 2.73884 h -21.07142 v -31.36417 h 20.67385 v 2.73884 h -17.58161 v 11.30878 h 15.32869 v 2.60631 h -15.32869 v 11.9714 z"
       style="font-style:normal;font-variant:normal;font-weight:normal;font-stretch:normal;font-family:Raleway;-inkscape-font-specification:Raleway;fill:#543019;fill-opacity:1;stroke-width:1.10437226"
       id="path4662" />
    <path
       d="m 239.97274,165.86054 q 0,-2.87137 0.97185,-5.61021 1.01602,-2.78302 2.91554,-5.03594 1.89952,-2.29709 4.68254,-3.62234 2.78302,-1.36942 6.31701,-1.36942 4.19661,0 7.15633,1.9437 3.00389,1.89952 4.41749,4.90341 l -2.42962,1.50195 q -1.01602,-2.07622 -2.56214,-3.26895 -1.54612,-1.23689 -3.31312,-1.76699 -1.72282,-0.5301 -3.44564,-0.5301 -2.82719,0 -4.99176,1.14855 -2.16457,1.10437 -3.66652,3.00389 -1.45777,1.85534 -2.20875,4.19661 -0.75097,2.2971 -0.75097,4.68254 0,2.60632 0.8835,4.99177 0.8835,2.38544 2.47379,4.24078 1.5903,1.81118 3.71069,2.91555 2.16457,1.0602 4.68254,1.0602 1.767,0 3.62234,-0.61845 1.85535,-0.61845 3.44565,-1.89952 1.63447,-1.28108 2.60631,-3.31312 l 2.56215,1.32525 q -0.97185,2.34127 -3.00389,3.97574 -2.03205,1.63447 -4.55002,2.47379 -2.47379,0.83932 -4.85924,0.83932 -3.22476,0 -5.91943,-1.36942 -2.69467,-1.41359 -4.68254,-3.71069 -1.9437,-2.34127 -3.00389,-5.21264 -1.0602,-2.91554 -1.0602,-5.87526 z"
       style="font-style:normal;font-variant:normal;font-weight:normal;font-stretch:normal;font-family:Raleway;-inkscape-font-specification:Raleway;fill:#543019;fill-opacity:1;stroke-width:1.10437226"
       id="path4664" />
    <path
       d="m 284.62182,181.98438 q -3.31312,0 -6.00778,-1.32525 -2.69467,-1.32525 -4.63837,-3.57816 -1.94369,-2.2971 -3.00389,-5.12429 -1.0602,-2.87137 -1.0602,-5.87526 0,-3.13642 1.10437,-5.96361 1.10438,-2.87137 3.09225,-5.08012 2.03204,-2.25292 4.72671,-3.53399 2.69467,-1.32524 5.83109,-1.32524 3.31311,0 6.00778,1.36942 2.69467,1.36942 4.59419,3.66651 1.9437,2.2971 3.00389,5.12429 1.0602,2.82719 1.0602,5.78691 0,3.13642 -1.10437,6.00779 -1.10437,2.82719 -3.09224,5.08011 -1.98787,2.20874 -4.68254,3.48982 -2.69467,1.28107 -5.83109,1.28107 z m -11.618,-15.90296 q 0,2.56214 0.83933,4.94759 0.83932,2.34126 2.38544,4.19661 1.54612,1.81117 3.66652,2.91554 2.16457,1.0602 4.72671,1.0602 2.69467,0 4.81506,-1.10437 2.16457,-1.14855 3.66652,-3.00389 1.54612,-1.89953 2.34127,-4.24079 0.79515,-2.34127 0.79515,-4.77089 0,-2.56215 -0.83933,-4.90342 -0.83932,-2.34127 -2.42961,-4.19661 -1.54613,-1.85535 -3.66652,-2.91554 -2.1204,-1.0602 -4.68254,-1.0602 -2.65049,0 -4.81506,1.10437 -2.1204,1.10437 -3.66652,3.00389 -1.50194,1.85535 -2.34127,4.19662 -0.79515,2.34127 -0.79515,4.77089 z"
       style="font-style:normal;font-variant:normal;font-weight:normal;font-stretch:normal;font-family:Raleway;-inkscape-font-specification:Raleway;fill:#543019;fill-opacity:1;stroke-width:1.10437226"
       id="path4666" />
    <path
       d="m 332.99125,181.7635 v -25.53308 l -11.35294,19.83452 h -1.9437 l -11.39712,-19.83452 v 25.53308 h -3.09224 v -31.36417 h 3.18059 l 12.23644,21.469 12.3248,-21.469 h 3.13642 v 31.36417 z"
       style="font-style:normal;font-variant:normal;font-weight:normal;font-stretch:normal;font-family:Raleway;-inkscape-font-specification:Raleway;fill:#543019;fill-opacity:1;stroke-width:1.10437226"
       id="path4668" />
    <path
       d="m 365.01599,179.02466 v 2.73884 h -21.07142 v -31.36417 h 20.67385 v 2.73884 h -17.58161 v 11.30878 h 15.32869 v 2.60631 h -15.32869 v 11.9714 z"
       style="font-style:normal;font-variant:normal;font-weight:normal;font-stretch:normal;font-family:Raleway;-inkscape-font-specification:Raleway;fill:#543019;fill-opacity:1;stroke-width:1.10437226"
       id="path4670" />
    <path
       d="m 392.09243,150.39933 10.24857,16.87481 10.33693,-16.87481 h 3.35729 l -12.1481,19.702 v 11.66217 h -3.09224 v -11.75052 l -12.10392,-19.61365 z"
       style="font-style:normal;font-variant:normal;font-weight:normal;font-stretch:normal;font-family:Raleway;-inkscape-font-specification:Raleway;fill:#543019;fill-opacity:1;stroke-width:1.10437226"
       id="path4672" />
    <path
       d="m 431.20999,181.98438 q -3.31311,0 -6.00778,-1.32525 -2.69467,-1.32525 -4.63837,-3.57816 -1.94369,-2.2971 -3.00389,-5.12429 -1.0602,-2.87137 -1.0602,-5.87526 0,-3.13642 1.10438,-5.96361 1.10437,-2.87137 3.09224,-5.08012 2.03204,-2.25292 4.72671,-3.53399 2.69467,-1.32524 5.83109,-1.32524 3.31312,0 6.00778,1.36942 2.69467,1.36942 4.59419,3.66651 1.9437,2.2971 3.0039,5.12429 1.06019,2.82719 1.06019,5.78691 0,3.13642 -1.10437,6.00779 -1.10437,2.82719 -3.09224,5.08011 -1.98787,2.20874 -4.68254,3.48982 -2.69467,1.28107 -5.83109,1.28107 z M 419.592,166.08142 q 0,2.56214 0.83932,4.94759 0.83932,2.34126 2.38544,4.19661 1.54613,1.81117 3.66652,2.91554 2.16457,1.0602 4.72671,1.0602 2.69467,0 4.81507,-1.10437 2.16457,-1.14855 3.66651,-3.00389 1.54612,-1.89953 2.34127,-4.24079 0.79515,-2.34127 0.79515,-4.77089 0,-2.56215 -0.83932,-4.90342 -0.83933,-2.34127 -2.42962,-4.19661 -1.54612,-1.85535 -3.66652,-2.91554 -2.12039,-1.0602 -4.68254,-1.0602 -2.65049,0 -4.81506,1.10437 -2.12039,1.10437 -3.66652,3.00389 -1.50194,1.85535 -2.34126,4.19662 -0.79515,2.34127 -0.79515,4.77089 z"
       style="font-style:normal;font-variant:normal;font-weight:normal;font-stretch:normal;font-family:Raleway;-inkscape-font-specification:Raleway;fill:#543019;fill-opacity:1;stroke-width:1.10437226"
       id="path4674" />
    <path
       d="m 464.55996,181.98438 q -3.71069,0 -6.27284,-1.32525 -2.56214,-1.32525 -4.06409,-3.53399 -1.50194,-2.25292 -2.20874,-5.08011 -0.66263,-2.8272 -0.66263,-5.83109 v -15.81461 h 3.04807 v 15.81461 q 0,2.42962 0.48592,4.77089 0.5301,2.34127 1.67865,4.19662 1.14855,1.85534 3.09224,2.95971 1.9437,1.0602 4.85924,1.0602 3.00389,0 4.94759,-1.10437 1.98787,-1.14855 3.09224,-3.00389 1.14855,-1.85535 1.63447,-4.15244 0.48593,-2.34127 0.48593,-4.72672 v -15.81461 h 3.09224 v 15.81461 q 0,3.13642 -0.7068,6.00779 -0.7068,2.87137 -2.29709,5.03594 -1.54612,2.16456 -4.06409,3.44564 -2.51797,1.28107 -6.14031,1.28107 z"
       style="font-style:normal;font-variant:normal;font-weight:normal;font-stretch:normal;font-family:Raleway;-inkscape-font-specification:Raleway;fill:#543019;fill-opacity:1;stroke-width:1.10437226"
       id="path4676" />
    <path
       d="m 488.27567,156.09789 v 25.66561 h -3.09224 v -31.36417 h 2.56214 l 20.5855,26.15154 v -26.10736 h 3.09224 v 31.31999 h -2.87136 z"
       style="font-style:normal;font-variant:normal;font-weight:normal;font-stretch:normal;font-family:Raleway;-inkscape-font-specification:Raleway;fill:#543019;fill-opacity:1;stroke-width:1.10437226"
       id="path4678" />
    <path
       d="m 531.8535,181.98438 q -3.13642,0 -5.83108,-1.32525 -2.69467,-1.36942 -4.68254,-3.66651 -1.98787,-2.2971 -3.09224,-5.12429 -1.0602,-2.82719 -1.0602,-5.83109 0,-3.18059 1.0602,-6.00778 1.10437,-2.87137 3.04806,-5.08012 1.9437,-2.20874 4.59419,-3.48981 2.6505,-1.28107 5.78691,-1.28107 4.63837,0 7.55391,1.89952 2.91554,1.89952 4.41749,4.94758 l -2.38545,1.5903 q -1.50194,-2.91554 -4.01991,-4.28496 -2.51797,-1.36943 -5.61021,-1.36943 -2.60632,0 -4.72672,1.10438 -2.07622,1.10437 -3.57816,2.95971 -1.50195,1.85535 -2.2971,4.19662 -0.75097,2.34127 -0.75097,4.85924 0,2.65049 0.8835,5.03593 0.8835,2.34127 2.51797,4.19662 1.63447,1.81117 3.75486,2.87137 2.16457,1.01602 4.63837,1.01602 2.87136,0 5.43351,-1.4136 2.56214,-1.45777 4.90341,-4.46166 v 3.26894 q -4.46166,5.38934 -10.5578,5.38934 z m 10.07188,-13.25247 h -6.97964 v -2.38544 h 9.58596 v 15.41703 h -2.60632 z"
       style="font-style:normal;font-variant:normal;font-weight:normal;font-stretch:normal;font-family:Raleway;-inkscape-font-specification:Raleway;fill:#543019;fill-opacity:1;stroke-width:1.10437226"
       id="path4680" />
    <path
       d="m 581.87123,150.39933 h 2.60632 l 13.0316,31.36417 h -3.26895 l -4.06409,-9.80682 h -14.09179 l -4.01991,9.80682 h -3.31312 z m 7.59808,19.12773 -6.317,-15.50539 -6.40536,15.50539 z"
       style="font-style:normal;font-variant:normal;font-weight:normal;font-stretch:normal;font-family:Raleway;-inkscape-font-specification:Raleway;fill:#543019;fill-opacity:1;stroke-width:1.10437226"
       id="path4682" />
    <path
       d="m 613.47353,181.98438 q -3.13642,0 -5.83109,-1.32525 -2.69467,-1.36942 -4.68254,-3.66651 -1.98787,-2.2971 -3.09224,-5.12429 -1.0602,-2.82719 -1.0602,-5.83109 0,-3.18059 1.0602,-6.00778 1.10437,-2.87137 3.04807,-5.08012 1.94369,-2.20874 4.59419,-3.48981 2.65049,-1.28107 5.78691,-1.28107 4.63836,0 7.5539,1.89952 2.91555,1.89952 4.41749,4.94758 l -2.38544,1.5903 q -1.50195,-2.91554 -4.01992,-4.28496 -2.51796,-1.36943 -5.61021,-1.36943 -2.60632,0 -4.72671,1.10438 -2.07622,1.10437 -3.57817,2.95971 -1.50194,1.85535 -2.29709,4.19662 -0.75097,2.34127 -0.75097,4.85924 0,2.65049 0.88349,5.03593 0.8835,2.34127 2.51797,4.19662 1.63447,1.81117 3.75487,2.87137 2.16457,1.01602 4.63836,1.01602 2.87137,0 5.43351,-1.4136 2.56215,-1.45777 4.90342,-4.46166 v 3.26894 q -4.46167,5.38934 -10.5578,5.38934 z m 10.07187,-13.25247 h -6.97963 v -2.38544 h 9.58595 v 15.41703 h -2.60632 z"
       style="font-style:normal;font-variant:normal;font-weight:normal;font-stretch:normal;font-family:Raleway;-inkscape-font-specification:Raleway;fill:#543019;fill-opacity:1;stroke-width:1.10437226"
       id="path4684" />
    <path
       d="m 642.26659,150.39933 h 2.60632 l 13.03159,31.36417 h -3.26894 l -4.06409,-9.80682 h -14.09179 l -4.01992,9.80682 h -3.31311 z m 7.59808,19.12773 -6.31701,-15.50539 -6.40536,15.50539 z"
       style="font-style:normal;font-variant:normal;font-weight:normal;font-stretch:normal;font-family:Raleway;-inkscape-font-specification:Raleway;fill:#543019;fill-opacity:1;stroke-width:1.10437226"
       id="path4686" />
    <path
       d="m 662.40068,181.7635 v -31.36417 h 3.09224 v 31.36417 z"
       style="font-style:normal;font-variant:normal;font-weight:normal;font-stretch:normal;font-family:Raleway;-inkscape-font-specification:Raleway;fill:#543019;fill-opacity:1;stroke-width:1.10437226"
       id="path4688" />
    <path
       d="m 676.45035,156.09789 v 25.66561 h -3.09224 v -31.36417 h 2.56214 l 20.5855,26.15154 v -26.10736 h 3.09225 v 31.31999 h -2.87137 z"
       style="font-style:normal;font-variant:normal;font-weight:normal;font-stretch:normal;font-family:Raleway;-inkscape-font-specification:Raleway;fill:#543019;fill-opacity:1;stroke-width:1.10437226"
       id="path4690" />
  </g>
</svg>
